<svg width="26" height="30" viewBox="0 0 26 30" fill="none" xmlns="http://www.w3.org/2000/svg">
<path d="M10.9545 30H0.201705V0.90909H10.9403C13.9044 0.90909 16.4564 1.49148 18.5966 2.65625C20.7462 3.81155 22.4034 5.47822 23.5682 7.65625C24.733 9.82481 25.3153 12.4195 25.3153 15.4403C25.3153 18.4706 24.733 21.0748 23.5682 23.2528C22.4129 25.4309 20.7604 27.1023 18.6108 28.267C16.4612 29.4223 13.9091 30 10.9545 30ZM7.23295 24.0057H10.6847C12.3134 24.0057 13.6913 23.7311 14.8182 23.1818C15.9545 22.6231 16.8116 21.7188 17.3892 20.4688C17.9763 19.2093 18.2699 17.5331 18.2699 15.4403C18.2699 13.3475 17.9763 11.6809 17.3892 10.4403C16.8021 9.19034 15.9356 8.29072 14.7898 7.74148C13.6534 7.18276 12.2519 6.90341 10.5852 6.90341H7.23295V24.0057Z" fill="#64FFDA"/>
</svg>
