<svg width="33" height="37" viewBox="0 0 33 37" fill="none" xmlns="http://www.w3.org/2000/svg">
<path d="M14.1932 37H0.752131V0.636363H14.1754C17.8804 0.636363 21.0705 1.36435 23.7457 2.82031C26.4328 4.26444 28.5043 6.34777 29.9602 9.07031C31.4162 11.781 32.1442 15.0244 32.1442 18.8004C32.1442 22.5883 31.4162 25.8435 29.9602 28.5661C28.5161 31.2886 26.4505 33.3778 23.7635 34.8338C21.0765 36.2779 17.8864 37 14.1932 37ZM9.54119 29.5071H13.8558C15.8918 29.5071 17.6141 29.1638 19.0227 28.4773C20.4432 27.7789 21.5144 26.6484 22.2365 25.0859C22.9704 23.5116 23.3374 21.4164 23.3374 18.8004C23.3374 16.1844 22.9704 14.1011 22.2365 12.5504C21.5026 10.9879 20.4195 9.8634 18.9872 9.17685C17.5668 8.47846 15.8149 8.12926 13.7315 8.12926H9.54119V29.5071Z" fill="#64FFDA"/>
</svg>
